<svg width="252" height="41" viewBox="0 0 252 41" fill="none" xmlns="http://www.w3.org/2000/svg">
<path d="M77.6455 32L73.2656 16.5752H73.1338C73.1729 16.9756 73.2119 17.5176 73.251 18.2012C73.2998 18.8848 73.3438 19.6221 73.3828 20.4131C73.4219 21.2041 73.4414 21.9658 73.4414 22.6982V32H68.3145V10.584H76.0195L80.4873 25.7891H80.6045L84.9844 10.584H92.7041V32H87.3867V22.6104C87.3867 21.9365 87.3965 21.2139 87.416 20.4424C87.4453 19.6611 87.4746 18.9287 87.5039 18.2451C87.543 17.5518 87.5771 17.0049 87.6064 16.6045H87.4746L83.1533 32H77.6455ZM94.9746 15.4033H101.01L103.822 24.9248C103.861 25.0615 103.9 25.2324 103.939 25.4375C103.979 25.6328 104.013 25.8428 104.042 26.0674C104.071 26.292 104.091 26.5117 104.101 26.7266H104.218C104.267 26.3262 104.32 25.9795 104.379 25.6865C104.447 25.3838 104.511 25.1396 104.569 24.9541L107.455 15.4033H113.3L106.737 33.0547C106.229 34.4023 105.639 35.5303 104.965 36.4385C104.301 37.3564 103.476 38.0449 102.489 38.5039C101.513 38.9727 100.297 39.207 98.8418 39.207C98.3145 39.207 97.8604 39.1777 97.4795 39.1191C97.1084 39.0703 96.7812 39.0166 96.498 38.958V34.4609C96.7129 34.5 96.9766 34.5391 97.2891 34.5781C97.6016 34.6172 97.9287 34.6367 98.2705 34.6367C98.9053 34.6367 99.418 34.5098 99.8086 34.2559C100.209 34.002 100.536 33.665 100.79 33.2451C101.044 32.835 101.264 32.3906 101.449 31.9121L101.508 31.7656L94.9746 15.4033ZM125.165 15.0225C124.481 15.0225 123.871 15.1689 123.334 15.4619C122.797 15.7451 122.338 16.1602 121.957 16.707C121.576 17.2539 121.283 17.9229 121.078 18.7139C120.883 19.4951 120.785 20.3838 120.785 21.3799C120.785 22.7275 120.956 23.8604 121.298 24.7783C121.64 25.6963 122.157 26.3896 122.851 26.8584C123.554 27.3271 124.433 27.5615 125.487 27.5615C126.444 27.5615 127.362 27.4297 128.241 27.166C129.13 26.9023 130.023 26.585 130.922 26.2139V31.1064C129.975 31.5264 129.003 31.8291 128.007 32.0146C127.021 32.2002 125.971 32.293 124.857 32.293C122.533 32.293 120.629 31.834 119.145 30.916C117.67 29.9883 116.581 28.7041 115.878 27.0635C115.185 25.4229 114.838 23.5186 114.838 21.3506C114.838 19.7295 115.062 18.2451 115.512 16.8975C115.971 15.5498 116.64 14.3828 117.519 13.3965C118.397 12.4004 119.481 11.6338 120.771 11.0967C122.069 10.5498 123.554 10.2764 125.224 10.2764C126.259 10.2764 127.348 10.3984 128.49 10.6426C129.643 10.877 130.766 11.2578 131.859 11.7852L130.087 16.3408C129.306 15.9697 128.515 15.6572 127.714 15.4033C126.913 15.1494 126.063 15.0225 125.165 15.0225ZM142.875 15.1104C144.975 15.1104 146.615 15.6328 147.797 16.6777C148.979 17.7129 149.569 19.1924 149.569 21.1162V32H145.6L144.501 29.8027H144.384C143.915 30.3887 143.432 30.8672 142.934 31.2383C142.445 31.5996 141.884 31.8633 141.249 32.0293C140.614 32.2051 139.838 32.293 138.92 32.293C137.963 32.293 137.104 32.0977 136.342 31.707C135.58 31.3164 134.979 30.7256 134.54 29.9346C134.101 29.1436 133.881 28.1426 133.881 26.9316C133.881 25.1543 134.496 23.8359 135.727 22.9766C136.957 22.1172 138.739 21.6338 141.073 21.5264L143.842 21.4385V21.2041C143.842 20.4619 143.656 19.9346 143.285 19.6221C142.924 19.3096 142.436 19.1533 141.82 19.1533C141.166 19.1533 140.434 19.2705 139.623 19.5049C138.822 19.7295 138.017 20.0225 137.206 20.3838L135.551 16.6045C136.508 16.1162 137.592 15.7451 138.803 15.4912C140.014 15.2373 141.371 15.1104 142.875 15.1104ZM143.871 24.5879L142.553 24.6465C141.498 24.6855 140.756 24.8711 140.326 25.2031C139.906 25.5254 139.696 25.9893 139.696 26.5947C139.696 27.1611 139.848 27.5811 140.15 27.8545C140.453 28.1182 140.854 28.25 141.352 28.25C142.045 28.25 142.636 28.0303 143.124 27.5908C143.622 27.1514 143.871 26.5801 143.871 25.877V24.5879ZM159.193 32H153.466V9.20703H159.193V32ZM170.634 15.1104C172.245 15.1104 173.637 15.3936 174.809 15.96C175.98 16.5166 176.884 17.3564 177.519 18.4795C178.153 19.6025 178.471 21.0088 178.471 22.6982V25.2471H168.231C168.28 26.1162 168.603 26.8291 169.198 27.3857C169.804 27.9424 170.692 28.2207 171.864 28.2207C172.899 28.2207 173.847 28.1182 174.706 27.9131C175.575 27.708 176.469 27.3906 177.387 26.9609V31.0771C176.586 31.4971 175.712 31.8047 174.765 32C173.817 32.1953 172.621 32.293 171.176 32.293C169.506 32.293 168.012 31.9951 166.693 31.3994C165.375 30.8037 164.335 29.8809 163.573 28.6309C162.821 27.3809 162.445 25.7744 162.445 23.8115C162.445 21.8193 162.787 20.1836 163.471 18.9043C164.154 17.6152 165.111 16.6631 166.342 16.0479C167.572 15.4229 169.003 15.1104 170.634 15.1104ZM170.839 19.0068C170.165 19.0068 169.599 19.2217 169.14 19.6514C168.69 20.0713 168.427 20.7354 168.349 21.6436H173.271C173.261 21.1553 173.163 20.7109 172.978 20.3105C172.792 19.9102 172.519 19.5928 172.157 19.3584C171.806 19.124 171.366 19.0068 170.839 19.0068ZM192.094 15.1104C193.803 15.1104 195.199 15.5938 196.283 16.5605C197.367 17.5273 197.909 19.0752 197.909 21.2041V32H192.182V22.9473C192.182 21.8438 192.021 21.0137 191.698 20.457C191.386 19.8906 190.878 19.6074 190.175 19.6074C189.091 19.6074 188.363 20.0518 187.992 20.9404C187.621 21.8193 187.436 23.084 187.436 24.7344V32H181.708V15.4033H186.029L186.806 17.6006H187.025C187.377 17.0732 187.797 16.624 188.285 16.2529C188.773 15.8818 189.335 15.5986 189.97 15.4033C190.604 15.208 191.312 15.1104 192.094 15.1104ZM206.962 32.293C205.253 32.293 203.847 31.5654 202.743 30.1104C201.64 28.6553 201.088 26.5264 201.088 23.7236C201.088 20.8916 201.654 18.748 202.787 17.293C203.92 15.8379 205.385 15.1104 207.182 15.1104C207.924 15.1104 208.563 15.2178 209.101 15.4326C209.638 15.6475 210.102 15.9404 210.492 16.3115C210.893 16.6729 211.239 17.083 211.532 17.542H211.649C211.581 17.1221 211.518 16.5459 211.459 15.8135C211.4 15.0713 211.371 14.3486 211.371 13.6455V9.20703H217.143V32H212.821L211.591 29.9053H211.371C211.107 30.3447 210.775 30.7451 210.375 31.1064C209.984 31.4678 209.506 31.7559 208.939 31.9707C208.383 32.1855 207.724 32.293 206.962 32.293ZM209.306 27.7666C210.224 27.7666 210.868 27.4785 211.239 26.9023C211.62 26.3164 211.825 25.4277 211.854 24.2363V23.7822C211.854 22.4736 211.669 21.4727 211.298 20.7793C210.937 20.0762 210.253 19.7246 209.247 19.7246C208.563 19.7246 207.997 20.0566 207.548 20.7207C207.099 21.3848 206.874 22.415 206.874 23.8115C206.874 25.1885 207.099 26.1943 207.548 26.8291C208.007 27.4541 208.593 27.7666 209.306 27.7666ZM229.213 15.1104C231.312 15.1104 232.953 15.6328 234.135 16.6777C235.316 17.7129 235.907 19.1924 235.907 21.1162V32H231.938L230.839 29.8027H230.722C230.253 30.3887 229.77 30.8672 229.271 31.2383C228.783 31.5996 228.222 31.8633 227.587 32.0293C226.952 32.2051 226.176 32.293 225.258 32.293C224.301 32.293 223.441 32.0977 222.68 31.707C221.918 31.3164 221.317 30.7256 220.878 29.9346C220.438 29.1436 220.219 28.1426 220.219 26.9316C220.219 25.1543 220.834 23.8359 222.064 22.9766C223.295 22.1172 225.077 21.6338 227.411 21.5264L230.18 21.4385V21.2041C230.18 20.4619 229.994 19.9346 229.623 19.6221C229.262 19.3096 228.773 19.1533 228.158 19.1533C227.504 19.1533 226.771 19.2705 225.961 19.5049C225.16 19.7295 224.354 20.0225 223.544 20.3838L221.889 16.6045C222.846 16.1162 223.93 15.7451 225.141 15.4912C226.352 15.2373 227.709 15.1104 229.213 15.1104ZM230.209 24.5879L228.891 24.6465C227.836 24.6855 227.094 24.8711 226.664 25.2031C226.244 25.5254 226.034 25.9893 226.034 26.5947C226.034 27.1611 226.186 27.5811 226.488 27.8545C226.791 28.1182 227.191 28.25 227.689 28.25C228.383 28.25 228.974 28.0303 229.462 27.5908C229.96 27.1514 230.209 26.5801 230.209 25.877V24.5879ZM249.823 15.1104C250.136 15.1104 250.463 15.1348 250.805 15.1836C251.146 15.2227 251.4 15.2568 251.566 15.2861L251.054 20.6914C250.868 20.6426 250.629 20.6035 250.336 20.5742C250.043 20.5352 249.633 20.5156 249.105 20.5156C248.744 20.5156 248.358 20.5498 247.948 20.6182C247.538 20.6865 247.147 20.833 246.776 21.0576C246.415 21.2725 246.117 21.6045 245.883 22.0537C245.648 22.4932 245.531 23.0889 245.531 23.8408V32H239.804V15.4033H244.066L244.96 18.0547H245.238C245.541 17.5078 245.927 17.0146 246.396 16.5752C246.874 16.126 247.406 15.7695 247.992 15.5059C248.588 15.2422 249.198 15.1104 249.823 15.1104Z" fill="white"/>
<path d="M43.5189 4.2438V4.00532C43.5189 3.46754 43.31 2.96369 42.9322 2.58793C42.5532 2.20882 42.0494 2 41.5136 2C40.4078 2 39.5083 2.89965 39.5083 4.00532V4.2438H35.366V4.00532C35.366 3.46754 35.1571 2.96369 34.7793 2.58793C34.4003 2.20882 33.8964 2 33.3607 2C32.2549 2 31.3554 2.89965 31.3554 4.00532V4.2438H27.2131V4.00532C27.2131 3.46765 27.0043 2.96381 26.6264 2.58782C26.2471 2.20871 25.7434 2 25.2078 2C24.1021 2 23.2024 2.89965 23.2024 4.00532V4.2438H19.06V4.00532C19.06 3.46765 18.8511 2.96369 18.4733 2.58782C18.0942 2.20871 17.5905 2 17.0547 2C15.949 2 15.0494 2.89965 15.0494 4.00532V4.2438H10.9071V4.00532C10.9071 3.46765 10.6982 2.96369 10.3204 2.58782C9.94126 2.20871 9.43753 2 8.90188 2C7.79621 2 6.89656 2.89965 6.89656 4.00532V4.2438H2.86835V4.99431L0 38.857H2.86835V40.6453H49.9999V4.2438H43.5189ZM41.0757 4.00532C41.0757 3.76392 41.2721 3.56753 41.5135 3.56753C41.6305 3.56753 41.7406 3.61321 41.8251 3.69786C41.9065 3.77881 41.9513 3.88797 41.9513 4.00543V4.24392H41.0757V4.00532V4.00532ZM32.9228 4.00532C32.9228 3.76392 33.1192 3.56753 33.3606 3.56753C33.5105 3.56753 33.6119 3.63751 33.6722 3.69786C33.7536 3.77881 33.7984 3.88797 33.7984 4.00543V4.24392H32.9228V4.00532V4.00532ZM24.7699 4.00532C24.7699 3.76392 24.9662 3.56753 25.2076 3.56753C25.3577 3.56753 25.4591 3.63751 25.5192 3.69763C25.6006 3.77858 25.6454 3.88786 25.6454 4.00532V4.2438H24.7699V4.00532ZM16.6169 4.00532C16.6169 3.76392 16.8133 3.56753 17.0547 3.56753C17.2046 3.56753 17.3062 3.63751 17.3663 3.69774C17.4477 3.7787 17.4925 3.88797 17.4925 4.00543V4.24392H16.6169V4.00532ZM8.46398 4.00532C8.46398 3.76392 8.66037 3.56753 8.90177 3.56753C9.05169 3.56753 9.15324 3.63751 9.21337 3.69774C9.29477 3.7787 9.33956 3.88797 9.33956 4.00543V4.24392H8.46398V4.00532ZM1.70592 37.2894L2.86835 23.5664V37.2894H1.70592ZM48.4325 39.0777H4.43588V5.81133H9.33944V6.82933C8.496 7.14754 7.89329 7.96075 7.89329 8.91425C7.89329 10.1438 8.89359 11.1442 10.1232 11.1442C11.3528 11.1442 12.3531 10.1439 12.3531 8.91425C12.3531 7.96086 11.7505 7.14754 10.907 6.82933V5.81133H17.4924V6.82933C16.6489 7.14754 16.0462 7.96075 16.0462 8.91425C16.0462 10.1438 17.0465 11.1442 18.2761 11.1442C19.5056 11.1442 20.506 10.1439 20.506 8.91425C20.506 7.96086 19.9034 7.14765 19.0599 6.82944V5.81144H25.6453V6.82944C24.8019 7.14765 24.1992 7.96086 24.1992 8.91437C24.1992 10.1439 25.1995 11.1443 26.4291 11.1443C27.6587 11.1443 28.6589 10.144 28.6589 8.91437C28.6589 7.96097 28.0563 7.14776 27.2128 6.82944V5.81144H33.7983V6.82944C32.9548 7.14765 32.3521 7.96086 32.3521 8.91437C32.3521 10.1439 33.3525 11.1443 34.582 11.1443C35.8115 11.1443 36.8118 10.144 36.8118 8.91437C36.8118 7.96097 36.2092 7.14776 35.3658 6.82944V5.81144H41.9512V6.82944C41.1077 7.14765 40.505 7.96086 40.505 8.91437C40.505 10.1439 41.5055 11.1443 42.735 11.1443C43.9645 11.1443 44.9648 10.144 44.9648 8.91437C44.9648 7.96097 44.3622 7.14776 43.5187 6.82944V5.81144H48.4322V39.0777H48.4325ZM10.7856 8.91425C10.7856 9.27949 10.4884 9.57665 10.1232 9.57665C9.75797 9.57665 9.46082 9.27949 9.46082 8.91425C9.46082 8.54902 9.75797 8.25197 10.1232 8.25197C10.4884 8.25197 10.7856 8.54902 10.7856 8.91425ZM18.9385 8.91425C18.9385 9.27949 18.6415 9.57665 18.2763 9.57665C17.911 9.57665 17.6139 9.27949 17.6139 8.91425C17.6139 8.54902 17.911 8.25197 18.2763 8.25197C18.6415 8.25197 18.9385 8.54902 18.9385 8.91425ZM27.0915 8.91425C27.0915 9.27949 26.7944 9.57665 26.4292 9.57665C26.064 9.57665 25.7669 9.27949 25.7669 8.91425C25.7669 8.54902 26.064 8.25197 26.4292 8.25197C26.7944 8.25197 27.0915 8.54902 27.0915 8.91425ZM35.2444 8.91425C35.2444 9.27949 34.9474 9.57665 34.5821 9.57665C34.2169 9.57665 33.9197 9.27949 33.9197 8.91425C33.9197 8.54902 34.2169 8.25197 34.5821 8.25197C34.9474 8.25197 35.2444 8.54902 35.2444 8.91425ZM43.3975 8.91425C43.3975 9.27949 43.1004 9.57665 42.7352 9.57665C42.3699 9.57665 42.0728 9.27949 42.0728 8.91425C42.0728 8.54902 42.3699 8.25197 42.7352 8.25197C43.1004 8.25197 43.3975 8.54902 43.3975 8.91425Z" fill="url(#paint0_linear_22_89)"/>
<path d="M7.41699 36.0578H45.4513V14.3163H7.41699V36.0578ZM8.98452 15.8838H43.8837V34.4903H8.98452V15.8838Z" fill="url(#paint1_linear_22_89)"/>
<path d="M12.8862 17.7972H10.423V20.2605H12.8862V17.7972Z" fill="url(#paint2_linear_22_89)"/>
<path d="M17.5048 17.7972H15.0415V20.2605H17.5048V17.7972Z" fill="url(#paint3_linear_22_89)"/>
<path d="M22.1234 17.7972H19.6602V20.2605H22.1234V17.7972Z" fill="url(#paint4_linear_22_89)"/>
<path d="M26.7421 17.7972H24.2788V20.2605H26.7421V17.7972Z" fill="url(#paint5_linear_22_89)"/>
<path d="M31.3607 17.7972H28.8975V20.2605H31.3607V17.7972Z" fill="url(#paint6_linear_22_89)"/>
<path d="M42.4454 17.7972H39.9822V20.2605H42.4454V17.7972Z" fill="url(#paint7_linear_22_89)"/>
<path d="M38.0787 17.7972H35.6155V20.2605H38.0787V17.7972Z" fill="url(#paint8_linear_22_89)"/>
<path d="M12.8862 21.9027H10.423V24.3659H12.8862V21.9027Z" fill="url(#paint9_linear_22_89)"/>
<path d="M17.5048 21.9027H15.0415V24.3659H17.5048V21.9027Z" fill="url(#paint10_linear_22_89)"/>
<path d="M22.1234 21.9027H19.6602V24.3659H22.1234V21.9027Z" fill="url(#paint11_linear_22_89)"/>
<path d="M26.7421 21.9027H24.2788V24.3659H26.7421V21.9027Z" fill="url(#paint12_linear_22_89)"/>
<path d="M31.3607 21.9027H28.8975V24.3659H31.3607V21.9027Z" fill="url(#paint13_linear_22_89)"/>
<path d="M42.4454 21.9027H39.9822V24.3659H42.4454V21.9027Z" fill="url(#paint14_linear_22_89)"/>
<path d="M38.0787 21.9027H35.6155V24.3659H38.0787V21.9027Z" fill="url(#paint15_linear_22_89)"/>
<path d="M12.8862 26.008H10.423V28.4713H12.8862V26.008Z" fill="url(#paint16_linear_22_89)"/>
<path d="M17.5048 26.008H15.0415V28.4713H17.5048V26.008Z" fill="url(#paint17_linear_22_89)"/>
<path d="M22.1234 26.008H19.6602V28.4713H22.1234V26.008Z" fill="url(#paint18_linear_22_89)"/>
<path d="M26.7421 26.008H24.2788V28.4713H26.7421V26.008Z" fill="url(#paint19_linear_22_89)"/>
<path d="M31.3607 26.008H28.8975V28.4713H31.3607V26.008Z" fill="url(#paint20_linear_22_89)"/>
<path d="M42.4454 26.008H39.9822V28.4713H42.4454V26.008Z" fill="url(#paint21_linear_22_89)"/>
<path d="M38.0787 26.008H35.6155V28.4713H38.0787V26.008Z" fill="url(#paint22_linear_22_89)"/>
<path d="M12.8862 30.1135H10.423V32.5768H12.8862V30.1135Z" fill="url(#paint23_linear_22_89)"/>
<path d="M17.5048 30.1135H15.0415V32.5768H17.5048V30.1135Z" fill="url(#paint24_linear_22_89)"/>
<path d="M22.1234 30.1135H19.6602V32.5768H22.1234V30.1135Z" fill="url(#paint25_linear_22_89)"/>
<path d="M26.7421 30.1135H24.2788V32.5768H26.7421V30.1135Z" fill="url(#paint26_linear_22_89)"/>
<path d="M31.3607 30.1135H28.8975V32.5768H31.3607V30.1135Z" fill="url(#paint27_linear_22_89)"/>
<path d="M42.4454 30.1135H39.9822V32.5768H42.4454V30.1135Z" fill="url(#paint28_linear_22_89)"/>
<path d="M38.0787 30.1135H35.6155V32.5768H38.0787V30.1135Z" fill="url(#paint29_linear_22_89)"/>
<defs>
<linearGradient id="paint0_linear_22_89" x1="24.9999" y1="2" x2="24.9999" y2="40.6453" gradientUnits="userSpaceOnUse">
<stop stop-color="#FFBE0B"/>
<stop offset="0.239583" stop-color="#FB5607"/>
<stop offset="0.484375" stop-color="#FF006E"/>
<stop offset="0.739583" stop-color="#8338EC"/>
<stop offset="1" stop-color="#3A86FF"/>
</linearGradient>
<linearGradient id="paint1_linear_22_89" x1="26.4341" y1="14.3163" x2="26.4341" y2="36.0578" gradientUnits="userSpaceOnUse">
<stop stop-color="#FFBE0B"/>
<stop offset="0.239583" stop-color="#FB5607"/>
<stop offset="0.484375" stop-color="#FF006E"/>
<stop offset="0.739583" stop-color="#8338EC"/>
<stop offset="1" stop-color="#3A86FF"/>
</linearGradient>
<linearGradient id="paint2_linear_22_89" x1="11.6546" y1="17.7972" x2="11.6546" y2="20.2605" gradientUnits="userSpaceOnUse">
<stop stop-color="#FFBE0B"/>
<stop offset="0.239583" stop-color="#FB5607"/>
<stop offset="0.484375" stop-color="#FF006E"/>
<stop offset="0.739583" stop-color="#8338EC"/>
<stop offset="1" stop-color="#3A86FF"/>
</linearGradient>
<linearGradient id="paint3_linear_22_89" x1="16.2731" y1="17.7972" x2="16.2731" y2="20.2605" gradientUnits="userSpaceOnUse">
<stop stop-color="#FFBE0B"/>
<stop offset="0.239583" stop-color="#FB5607"/>
<stop offset="0.484375" stop-color="#FF006E"/>
<stop offset="0.739583" stop-color="#8338EC"/>
<stop offset="1" stop-color="#3A86FF"/>
</linearGradient>
<linearGradient id="paint4_linear_22_89" x1="20.8918" y1="17.7972" x2="20.8918" y2="20.2605" gradientUnits="userSpaceOnUse">
<stop stop-color="#FFBE0B"/>
<stop offset="0.239583" stop-color="#FB5607"/>
<stop offset="0.484375" stop-color="#FF006E"/>
<stop offset="0.739583" stop-color="#8338EC"/>
<stop offset="1" stop-color="#3A86FF"/>
</linearGradient>
<linearGradient id="paint5_linear_22_89" x1="25.5104" y1="17.7972" x2="25.5104" y2="20.2605" gradientUnits="userSpaceOnUse">
<stop stop-color="#FFBE0B"/>
<stop offset="0.239583" stop-color="#FB5607"/>
<stop offset="0.484375" stop-color="#FF006E"/>
<stop offset="0.739583" stop-color="#8338EC"/>
<stop offset="1" stop-color="#3A86FF"/>
</linearGradient>
<linearGradient id="paint6_linear_22_89" x1="30.1291" y1="17.7972" x2="30.1291" y2="20.2605" gradientUnits="userSpaceOnUse">
<stop stop-color="#FFBE0B"/>
<stop offset="0.239583" stop-color="#FB5607"/>
<stop offset="0.484375" stop-color="#FF006E"/>
<stop offset="0.739583" stop-color="#8338EC"/>
<stop offset="1" stop-color="#3A86FF"/>
</linearGradient>
<linearGradient id="paint7_linear_22_89" x1="41.2138" y1="17.7972" x2="41.2138" y2="20.2605" gradientUnits="userSpaceOnUse">
<stop stop-color="#FFBE0B"/>
<stop offset="0.239583" stop-color="#FB5607"/>
<stop offset="0.484375" stop-color="#FF006E"/>
<stop offset="0.739583" stop-color="#8338EC"/>
<stop offset="1" stop-color="#3A86FF"/>
</linearGradient>
<linearGradient id="paint8_linear_22_89" x1="36.8471" y1="17.7972" x2="36.8471" y2="20.2605" gradientUnits="userSpaceOnUse">
<stop stop-color="#FFBE0B"/>
<stop offset="0.239583" stop-color="#FB5607"/>
<stop offset="0.484375" stop-color="#FF006E"/>
<stop offset="0.739583" stop-color="#8338EC"/>
<stop offset="1" stop-color="#3A86FF"/>
</linearGradient>
<linearGradient id="paint9_linear_22_89" x1="11.6546" y1="21.9027" x2="11.6546" y2="24.3659" gradientUnits="userSpaceOnUse">
<stop stop-color="#FFBE0B"/>
<stop offset="0.239583" stop-color="#FB5607"/>
<stop offset="0.484375" stop-color="#FF006E"/>
<stop offset="0.739583" stop-color="#8338EC"/>
<stop offset="1" stop-color="#3A86FF"/>
</linearGradient>
<linearGradient id="paint10_linear_22_89" x1="16.2731" y1="21.9027" x2="16.2731" y2="24.3659" gradientUnits="userSpaceOnUse">
<stop stop-color="#FFBE0B"/>
<stop offset="0.239583" stop-color="#FB5607"/>
<stop offset="0.484375" stop-color="#FF006E"/>
<stop offset="0.739583" stop-color="#8338EC"/>
<stop offset="1" stop-color="#3A86FF"/>
</linearGradient>
<linearGradient id="paint11_linear_22_89" x1="20.8918" y1="21.9027" x2="20.8918" y2="24.3659" gradientUnits="userSpaceOnUse">
<stop stop-color="#FFBE0B"/>
<stop offset="0.239583" stop-color="#FB5607"/>
<stop offset="0.484375" stop-color="#FF006E"/>
<stop offset="0.739583" stop-color="#8338EC"/>
<stop offset="1" stop-color="#3A86FF"/>
</linearGradient>
<linearGradient id="paint12_linear_22_89" x1="25.5104" y1="21.9027" x2="25.5104" y2="24.3659" gradientUnits="userSpaceOnUse">
<stop stop-color="#FFBE0B"/>
<stop offset="0.239583" stop-color="#FB5607"/>
<stop offset="0.484375" stop-color="#FF006E"/>
<stop offset="0.739583" stop-color="#8338EC"/>
<stop offset="1" stop-color="#3A86FF"/>
</linearGradient>
<linearGradient id="paint13_linear_22_89" x1="30.1291" y1="21.9027" x2="30.1291" y2="24.3659" gradientUnits="userSpaceOnUse">
<stop stop-color="#FFBE0B"/>
<stop offset="0.239583" stop-color="#FB5607"/>
<stop offset="0.484375" stop-color="#FF006E"/>
<stop offset="0.739583" stop-color="#8338EC"/>
<stop offset="1" stop-color="#3A86FF"/>
</linearGradient>
<linearGradient id="paint14_linear_22_89" x1="41.2138" y1="21.9027" x2="41.2138" y2="24.3659" gradientUnits="userSpaceOnUse">
<stop stop-color="#FFBE0B"/>
<stop offset="0.239583" stop-color="#FB5607"/>
<stop offset="0.484375" stop-color="#FF006E"/>
<stop offset="0.739583" stop-color="#8338EC"/>
<stop offset="1" stop-color="#3A86FF"/>
</linearGradient>
<linearGradient id="paint15_linear_22_89" x1="36.8471" y1="21.9027" x2="36.8471" y2="24.3659" gradientUnits="userSpaceOnUse">
<stop stop-color="#FFBE0B"/>
<stop offset="0.239583" stop-color="#FB5607"/>
<stop offset="0.484375" stop-color="#FF006E"/>
<stop offset="0.739583" stop-color="#8338EC"/>
<stop offset="1" stop-color="#3A86FF"/>
</linearGradient>
<linearGradient id="paint16_linear_22_89" x1="11.6546" y1="26.008" x2="11.6546" y2="28.4713" gradientUnits="userSpaceOnUse">
<stop stop-color="#FFBE0B"/>
<stop offset="0.239583" stop-color="#FB5607"/>
<stop offset="0.484375" stop-color="#FF006E"/>
<stop offset="0.739583" stop-color="#8338EC"/>
<stop offset="1" stop-color="#3A86FF"/>
</linearGradient>
<linearGradient id="paint17_linear_22_89" x1="16.2731" y1="26.008" x2="16.2731" y2="28.4713" gradientUnits="userSpaceOnUse">
<stop stop-color="#FFBE0B"/>
<stop offset="0.239583" stop-color="#FB5607"/>
<stop offset="0.484375" stop-color="#FF006E"/>
<stop offset="0.739583" stop-color="#8338EC"/>
<stop offset="1" stop-color="#3A86FF"/>
</linearGradient>
<linearGradient id="paint18_linear_22_89" x1="20.8918" y1="26.008" x2="20.8918" y2="28.4713" gradientUnits="userSpaceOnUse">
<stop stop-color="#FFBE0B"/>
<stop offset="0.239583" stop-color="#FB5607"/>
<stop offset="0.484375" stop-color="#FF006E"/>
<stop offset="0.739583" stop-color="#8338EC"/>
<stop offset="1" stop-color="#3A86FF"/>
</linearGradient>
<linearGradient id="paint19_linear_22_89" x1="25.5104" y1="26.008" x2="25.5104" y2="28.4713" gradientUnits="userSpaceOnUse">
<stop stop-color="#FFBE0B"/>
<stop offset="0.239583" stop-color="#FB5607"/>
<stop offset="0.484375" stop-color="#FF006E"/>
<stop offset="0.739583" stop-color="#8338EC"/>
<stop offset="1" stop-color="#3A86FF"/>
</linearGradient>
<linearGradient id="paint20_linear_22_89" x1="30.1291" y1="26.008" x2="30.1291" y2="28.4713" gradientUnits="userSpaceOnUse">
<stop stop-color="#FFBE0B"/>
<stop offset="0.239583" stop-color="#FB5607"/>
<stop offset="0.484375" stop-color="#FF006E"/>
<stop offset="0.739583" stop-color="#8338EC"/>
<stop offset="1" stop-color="#3A86FF"/>
</linearGradient>
<linearGradient id="paint21_linear_22_89" x1="41.2138" y1="26.008" x2="41.2138" y2="28.4713" gradientUnits="userSpaceOnUse">
<stop stop-color="#FFBE0B"/>
<stop offset="0.239583" stop-color="#FB5607"/>
<stop offset="0.484375" stop-color="#FF006E"/>
<stop offset="0.739583" stop-color="#8338EC"/>
<stop offset="1" stop-color="#3A86FF"/>
</linearGradient>
<linearGradient id="paint22_linear_22_89" x1="36.8471" y1="26.008" x2="36.8471" y2="28.4713" gradientUnits="userSpaceOnUse">
<stop stop-color="#FFBE0B"/>
<stop offset="0.239583" stop-color="#FB5607"/>
<stop offset="0.484375" stop-color="#FF006E"/>
<stop offset="0.739583" stop-color="#8338EC"/>
<stop offset="1" stop-color="#3A86FF"/>
</linearGradient>
<linearGradient id="paint23_linear_22_89" x1="11.6546" y1="30.1135" x2="11.6546" y2="32.5768" gradientUnits="userSpaceOnUse">
<stop stop-color="#FFBE0B"/>
<stop offset="0.239583" stop-color="#FB5607"/>
<stop offset="0.484375" stop-color="#FF006E"/>
<stop offset="0.739583" stop-color="#8338EC"/>
<stop offset="1" stop-color="#3A86FF"/>
</linearGradient>
<linearGradient id="paint24_linear_22_89" x1="16.2731" y1="30.1135" x2="16.2731" y2="32.5768" gradientUnits="userSpaceOnUse">
<stop stop-color="#FFBE0B"/>
<stop offset="0.239583" stop-color="#FB5607"/>
<stop offset="0.484375" stop-color="#FF006E"/>
<stop offset="0.739583" stop-color="#8338EC"/>
<stop offset="1" stop-color="#3A86FF"/>
</linearGradient>
<linearGradient id="paint25_linear_22_89" x1="20.8918" y1="30.1135" x2="20.8918" y2="32.5768" gradientUnits="userSpaceOnUse">
<stop stop-color="#FFBE0B"/>
<stop offset="0.239583" stop-color="#FB5607"/>
<stop offset="0.484375" stop-color="#FF006E"/>
<stop offset="0.739583" stop-color="#8338EC"/>
<stop offset="1" stop-color="#3A86FF"/>
</linearGradient>
<linearGradient id="paint26_linear_22_89" x1="25.5104" y1="30.1135" x2="25.5104" y2="32.5768" gradientUnits="userSpaceOnUse">
<stop stop-color="#FFBE0B"/>
<stop offset="0.239583" stop-color="#FB5607"/>
<stop offset="0.484375" stop-color="#FF006E"/>
<stop offset="0.739583" stop-color="#8338EC"/>
<stop offset="1" stop-color="#3A86FF"/>
</linearGradient>
<linearGradient id="paint27_linear_22_89" x1="30.1291" y1="30.1135" x2="30.1291" y2="32.5768" gradientUnits="userSpaceOnUse">
<stop stop-color="#FFBE0B"/>
<stop offset="0.239583" stop-color="#FB5607"/>
<stop offset="0.484375" stop-color="#FF006E"/>
<stop offset="0.739583" stop-color="#8338EC"/>
<stop offset="1" stop-color="#3A86FF"/>
</linearGradient>
<linearGradient id="paint28_linear_22_89" x1="41.2138" y1="30.1135" x2="41.2138" y2="32.5768" gradientUnits="userSpaceOnUse">
<stop stop-color="#FFBE0B"/>
<stop offset="0.239583" stop-color="#FB5607"/>
<stop offset="0.484375" stop-color="#FF006E"/>
<stop offset="0.739583" stop-color="#8338EC"/>
<stop offset="1" stop-color="#3A86FF"/>
</linearGradient>
<linearGradient id="paint29_linear_22_89" x1="36.8471" y1="30.1135" x2="36.8471" y2="32.5768" gradientUnits="userSpaceOnUse">
<stop stop-color="#FFBE0B"/>
<stop offset="0.239583" stop-color="#FB5607"/>
<stop offset="0.484375" stop-color="#FF006E"/>
<stop offset="0.739583" stop-color="#8338EC"/>
<stop offset="1" stop-color="#3A86FF"/>
</linearGradient>
</defs>
</svg>
