<svg width="50" height="39" viewBox="0 0 50 39" fill="none" xmlns="http://www.w3.org/2000/svg">
<path d="M43.5189 2.2438V2.00532C43.5189 1.46754 43.31 0.963694 42.9322 0.587935C42.5532 0.208817 42.0494 0 41.5136 0C40.4078 0 39.5083 0.899649 39.5083 2.00532V2.2438H35.366V2.00532C35.366 1.46754 35.1571 0.963694 34.7793 0.587935C34.4003 0.208817 33.8965 0 33.3607 0C32.2549 0 31.3554 0.899649 31.3554 2.00532V2.2438H27.2131V2.00532C27.2131 1.46765 27.0043 0.963806 26.6264 0.587823C26.2471 0.208705 25.7434 0 25.2078 0C24.1021 0 23.2024 0.899649 23.2024 2.00532V2.2438H19.06V2.00532C19.06 1.46765 18.8511 0.963694 18.4733 0.587823C18.0942 0.208705 17.5905 0 17.0547 0C15.949 0 15.0494 0.899649 15.0494 2.00532V2.2438H10.9071V2.00532C10.9071 1.46765 10.6982 0.963694 10.3204 0.587823C9.94126 0.208705 9.43753 0 8.90188 0C7.79621 0 6.89656 0.899649 6.89656 2.00532V2.2438H2.86835V2.99431L0 36.8569H2.86835V38.6453H49.9999V2.2438H43.5189ZM41.0757 2.00532C41.0757 1.76392 41.2721 1.56753 41.5135 1.56753C41.6305 1.56753 41.7406 1.61321 41.8251 1.69786C41.9065 1.77881 41.9513 1.88797 41.9513 2.00543V2.24392H41.0757V2.00532ZM32.9228 2.00532C32.9228 1.76392 33.1192 1.56753 33.3606 1.56753C33.5105 1.56753 33.6119 1.63751 33.6722 1.69786C33.7536 1.77881 33.7984 1.88797 33.7984 2.00543V2.24392H32.9228V2.00532ZM24.7699 2.00532C24.7699 1.76392 24.9662 1.56753 25.2076 1.56753C25.3577 1.56753 25.4591 1.63751 25.5192 1.69763C25.6006 1.77858 25.6454 1.88786 25.6454 2.00532V2.2438H24.7699V2.00532ZM16.6169 2.00532C16.6169 1.76392 16.8133 1.56753 17.0547 1.56753C17.2046 1.56753 17.3062 1.63751 17.3663 1.69774C17.4477 1.7787 17.4925 1.88797 17.4925 2.00543V2.24392H16.6169V2.00532ZM8.46398 2.00532C8.46398 1.76392 8.66037 1.56753 8.90177 1.56753C9.05169 1.56753 9.15324 1.63751 9.21337 1.69774C9.29477 1.7787 9.33956 1.88797 9.33956 2.00543V2.24392H8.46398V2.00532ZM1.70592 35.2894L2.86835 21.5664V35.2894H1.70592ZM48.4325 37.0777H4.43588V3.81133H9.33944V4.82933C8.496 5.14754 7.89329 5.96075 7.89329 6.91425C7.89329 8.14375 8.89359 9.14417 10.1232 9.14417C11.3528 9.14417 12.3531 8.14387 12.3531 6.91425C12.3531 5.96086 11.7505 5.14754 10.907 4.82933V3.81133H17.4924V4.82933C16.6489 5.14754 16.0462 5.96075 16.0462 6.91425C16.0462 8.14375 17.0465 9.14417 18.2761 9.14417C19.5056 9.14417 20.506 8.14387 20.506 6.91425C20.506 5.96086 19.9034 5.14765 19.0599 4.82944V3.81144H25.6453V4.82944C24.8019 5.14765 24.1992 5.96086 24.1992 6.91437C24.1992 8.14387 25.1995 9.14429 26.4291 9.14429C27.6587 9.14429 28.6589 8.14398 28.6589 6.91437C28.6589 5.96097 28.0563 5.14776 27.2128 4.82944V3.81144H33.7983V4.82944C32.9548 5.14765 32.3521 5.96086 32.3521 6.91437C32.3521 8.14387 33.3525 9.14429 34.582 9.14429C35.8115 9.14429 36.8118 8.14398 36.8118 6.91437C36.8118 5.96097 36.2092 5.14776 35.3658 4.82944V3.81144H41.9512V4.82944C41.1077 5.14765 40.505 5.96086 40.505 6.91437C40.505 8.14387 41.5055 9.14429 42.735 9.14429C43.9645 9.14429 44.9648 8.14398 44.9648 6.91437C44.9648 5.96097 44.3622 5.14776 43.5187 4.82944V3.81144H48.4322V37.0777H48.4325ZM10.7856 6.91425C10.7856 7.27949 10.4884 7.57665 10.1232 7.57665C9.75797 7.57665 9.46082 7.27949 9.46082 6.91425C9.46082 6.54902 9.75797 6.25197 10.1232 6.25197C10.4884 6.25197 10.7856 6.54902 10.7856 6.91425ZM18.9385 6.91425C18.9385 7.27949 18.6415 7.57665 18.2763 7.57665C17.911 7.57665 17.6139 7.27949 17.6139 6.91425C17.6139 6.54902 17.911 6.25197 18.2763 6.25197C18.6415 6.25197 18.9385 6.54902 18.9385 6.91425ZM27.0915 6.91425C27.0915 7.27949 26.7944 7.57665 26.4292 7.57665C26.064 7.57665 25.7669 7.27949 25.7669 6.91425C25.7669 6.54902 26.064 6.25197 26.4292 6.25197C26.7944 6.25197 27.0915 6.54902 27.0915 6.91425ZM35.2444 6.91425C35.2444 7.27949 34.9474 7.57665 34.5821 7.57665C34.2169 7.57665 33.9197 7.27949 33.9197 6.91425C33.9197 6.54902 34.2169 6.25197 34.5821 6.25197C34.9474 6.25197 35.2444 6.54902 35.2444 6.91425ZM43.3975 6.91425C43.3975 7.27949 43.1004 7.57665 42.7352 7.57665C42.3699 7.57665 42.0728 7.27949 42.0728 6.91425C42.0728 6.54902 42.3699 6.25197 42.7352 6.25197C43.1004 6.25197 43.3975 6.54902 43.3975 6.91425Z" fill="url(#paint0_linear_7_32)"/>
<path d="M7.41699 34.0578H45.4513V12.3163H7.41699V34.0578ZM8.98452 13.8838H43.8837V32.4903H8.98452V13.8838Z" fill="url(#paint1_linear_7_32)"/>
<path d="M12.8862 15.7972H10.423V18.2604H12.8862V15.7972Z" fill="url(#paint2_linear_7_32)"/>
<path d="M17.5048 15.7972H15.0415V18.2604H17.5048V15.7972Z" fill="url(#paint3_linear_7_32)"/>
<path d="M22.1234 15.7972H19.6602V18.2604H22.1234V15.7972Z" fill="url(#paint4_linear_7_32)"/>
<path d="M26.7421 15.7972H24.2788V18.2604H26.7421V15.7972Z" fill="url(#paint5_linear_7_32)"/>
<path d="M31.3607 15.7972H28.8975V18.2604H31.3607V15.7972Z" fill="url(#paint6_linear_7_32)"/>
<path d="M42.4454 15.7972H39.9822V18.2604H42.4454V15.7972Z" fill="url(#paint7_linear_7_32)"/>
<path d="M38.0787 15.7972H35.6155V18.2604H38.0787V15.7972Z" fill="url(#paint8_linear_7_32)"/>
<path d="M12.8862 19.9027H10.423V22.366H12.8862V19.9027Z" fill="url(#paint9_linear_7_32)"/>
<path d="M17.5048 19.9027H15.0415V22.366H17.5048V19.9027Z" fill="url(#paint10_linear_7_32)"/>
<path d="M22.1234 19.9027H19.6602V22.366H22.1234V19.9027Z" fill="url(#paint11_linear_7_32)"/>
<path d="M26.7421 19.9027H24.2788V22.366H26.7421V19.9027Z" fill="url(#paint12_linear_7_32)"/>
<path d="M31.3607 19.9027H28.8975V22.366H31.3607V19.9027Z" fill="url(#paint13_linear_7_32)"/>
<path d="M42.4454 19.9027H39.9822V22.366H42.4454V19.9027Z" fill="url(#paint14_linear_7_32)"/>
<path d="M38.0787 19.9027H35.6155V22.366H38.0787V19.9027Z" fill="url(#paint15_linear_7_32)"/>
<path d="M12.8862 24.008H10.423V26.4713H12.8862V24.008Z" fill="url(#paint16_linear_7_32)"/>
<path d="M17.5048 24.008H15.0415V26.4713H17.5048V24.008Z" fill="url(#paint17_linear_7_32)"/>
<path d="M22.1234 24.008H19.6602V26.4713H22.1234V24.008Z" fill="url(#paint18_linear_7_32)"/>
<path d="M26.7421 24.008H24.2788V26.4713H26.7421V24.008Z" fill="url(#paint19_linear_7_32)"/>
<path d="M31.3607 24.008H28.8975V26.4713H31.3607V24.008Z" fill="url(#paint20_linear_7_32)"/>
<path d="M42.4454 24.008H39.9822V26.4713H42.4454V24.008Z" fill="url(#paint21_linear_7_32)"/>
<path d="M38.0787 24.008H35.6155V26.4713H38.0787V24.008Z" fill="url(#paint22_linear_7_32)"/>
<path d="M12.8862 28.1135H10.423V30.5768H12.8862V28.1135Z" fill="url(#paint23_linear_7_32)"/>
<path d="M17.5048 28.1135H15.0415V30.5768H17.5048V28.1135Z" fill="url(#paint24_linear_7_32)"/>
<path d="M22.1234 28.1135H19.6602V30.5768H22.1234V28.1135Z" fill="url(#paint25_linear_7_32)"/>
<path d="M26.7421 28.1135H24.2788V30.5768H26.7421V28.1135Z" fill="url(#paint26_linear_7_32)"/>
<path d="M31.3607 28.1135H28.8975V30.5768H31.3607V28.1135Z" fill="url(#paint27_linear_7_32)"/>
<path d="M42.4454 28.1135H39.9822V30.5768H42.4454V28.1135Z" fill="url(#paint28_linear_7_32)"/>
<path d="M38.0787 28.1135H35.6155V30.5768H38.0787V28.1135Z" fill="url(#paint29_linear_7_32)"/>
<defs>
<linearGradient id="paint0_linear_7_32" x1="24.9999" y1="0" x2="24.9999" y2="38.6453" gradientUnits="userSpaceOnUse">
<stop stop-color="#FFBE0B"/>
<stop offset="0.239583" stop-color="#FB5607"/>
<stop offset="0.484375" stop-color="#FF006E"/>
<stop offset="0.739583" stop-color="#8338EC"/>
<stop offset="1" stop-color="#3A86FF"/>
</linearGradient>
<linearGradient id="paint1_linear_7_32" x1="26.4341" y1="12.3163" x2="26.4341" y2="34.0578" gradientUnits="userSpaceOnUse">
<stop stop-color="#FFBE0B"/>
<stop offset="0.239583" stop-color="#FB5607"/>
<stop offset="0.484375" stop-color="#FF006E"/>
<stop offset="0.739583" stop-color="#8338EC"/>
<stop offset="1" stop-color="#3A86FF"/>
</linearGradient>
<linearGradient id="paint2_linear_7_32" x1="11.6546" y1="15.7972" x2="11.6546" y2="18.2604" gradientUnits="userSpaceOnUse">
<stop stop-color="#FFBE0B"/>
<stop offset="0.239583" stop-color="#FB5607"/>
<stop offset="0.484375" stop-color="#FF006E"/>
<stop offset="0.739583" stop-color="#8338EC"/>
<stop offset="1" stop-color="#3A86FF"/>
</linearGradient>
<linearGradient id="paint3_linear_7_32" x1="16.2731" y1="15.7972" x2="16.2731" y2="18.2604" gradientUnits="userSpaceOnUse">
<stop stop-color="#FFBE0B"/>
<stop offset="0.239583" stop-color="#FB5607"/>
<stop offset="0.484375" stop-color="#FF006E"/>
<stop offset="0.739583" stop-color="#8338EC"/>
<stop offset="1" stop-color="#3A86FF"/>
</linearGradient>
<linearGradient id="paint4_linear_7_32" x1="20.8918" y1="15.7972" x2="20.8918" y2="18.2604" gradientUnits="userSpaceOnUse">
<stop stop-color="#FFBE0B"/>
<stop offset="0.239583" stop-color="#FB5607"/>
<stop offset="0.484375" stop-color="#FF006E"/>
<stop offset="0.739583" stop-color="#8338EC"/>
<stop offset="1" stop-color="#3A86FF"/>
</linearGradient>
<linearGradient id="paint5_linear_7_32" x1="25.5104" y1="15.7972" x2="25.5104" y2="18.2604" gradientUnits="userSpaceOnUse">
<stop stop-color="#FFBE0B"/>
<stop offset="0.239583" stop-color="#FB5607"/>
<stop offset="0.484375" stop-color="#FF006E"/>
<stop offset="0.739583" stop-color="#8338EC"/>
<stop offset="1" stop-color="#3A86FF"/>
</linearGradient>
<linearGradient id="paint6_linear_7_32" x1="30.1291" y1="15.7972" x2="30.1291" y2="18.2604" gradientUnits="userSpaceOnUse">
<stop stop-color="#FFBE0B"/>
<stop offset="0.239583" stop-color="#FB5607"/>
<stop offset="0.484375" stop-color="#FF006E"/>
<stop offset="0.739583" stop-color="#8338EC"/>
<stop offset="1" stop-color="#3A86FF"/>
</linearGradient>
<linearGradient id="paint7_linear_7_32" x1="41.2138" y1="15.7972" x2="41.2138" y2="18.2604" gradientUnits="userSpaceOnUse">
<stop stop-color="#FFBE0B"/>
<stop offset="0.239583" stop-color="#FB5607"/>
<stop offset="0.484375" stop-color="#FF006E"/>
<stop offset="0.739583" stop-color="#8338EC"/>
<stop offset="1" stop-color="#3A86FF"/>
</linearGradient>
<linearGradient id="paint8_linear_7_32" x1="36.8471" y1="15.7972" x2="36.8471" y2="18.2604" gradientUnits="userSpaceOnUse">
<stop stop-color="#FFBE0B"/>
<stop offset="0.239583" stop-color="#FB5607"/>
<stop offset="0.484375" stop-color="#FF006E"/>
<stop offset="0.739583" stop-color="#8338EC"/>
<stop offset="1" stop-color="#3A86FF"/>
</linearGradient>
<linearGradient id="paint9_linear_7_32" x1="11.6546" y1="19.9027" x2="11.6546" y2="22.366" gradientUnits="userSpaceOnUse">
<stop stop-color="#FFBE0B"/>
<stop offset="0.239583" stop-color="#FB5607"/>
<stop offset="0.484375" stop-color="#FF006E"/>
<stop offset="0.739583" stop-color="#8338EC"/>
<stop offset="1" stop-color="#3A86FF"/>
</linearGradient>
<linearGradient id="paint10_linear_7_32" x1="16.2731" y1="19.9027" x2="16.2731" y2="22.366" gradientUnits="userSpaceOnUse">
<stop stop-color="#FFBE0B"/>
<stop offset="0.239583" stop-color="#FB5607"/>
<stop offset="0.484375" stop-color="#FF006E"/>
<stop offset="0.739583" stop-color="#8338EC"/>
<stop offset="1" stop-color="#3A86FF"/>
</linearGradient>
<linearGradient id="paint11_linear_7_32" x1="20.8918" y1="19.9027" x2="20.8918" y2="22.366" gradientUnits="userSpaceOnUse">
<stop stop-color="#FFBE0B"/>
<stop offset="0.239583" stop-color="#FB5607"/>
<stop offset="0.484375" stop-color="#FF006E"/>
<stop offset="0.739583" stop-color="#8338EC"/>
<stop offset="1" stop-color="#3A86FF"/>
</linearGradient>
<linearGradient id="paint12_linear_7_32" x1="25.5104" y1="19.9027" x2="25.5104" y2="22.366" gradientUnits="userSpaceOnUse">
<stop stop-color="#FFBE0B"/>
<stop offset="0.239583" stop-color="#FB5607"/>
<stop offset="0.484375" stop-color="#FF006E"/>
<stop offset="0.739583" stop-color="#8338EC"/>
<stop offset="1" stop-color="#3A86FF"/>
</linearGradient>
<linearGradient id="paint13_linear_7_32" x1="30.1291" y1="19.9027" x2="30.1291" y2="22.366" gradientUnits="userSpaceOnUse">
<stop stop-color="#FFBE0B"/>
<stop offset="0.239583" stop-color="#FB5607"/>
<stop offset="0.484375" stop-color="#FF006E"/>
<stop offset="0.739583" stop-color="#8338EC"/>
<stop offset="1" stop-color="#3A86FF"/>
</linearGradient>
<linearGradient id="paint14_linear_7_32" x1="41.2138" y1="19.9027" x2="41.2138" y2="22.366" gradientUnits="userSpaceOnUse">
<stop stop-color="#FFBE0B"/>
<stop offset="0.239583" stop-color="#FB5607"/>
<stop offset="0.484375" stop-color="#FF006E"/>
<stop offset="0.739583" stop-color="#8338EC"/>
<stop offset="1" stop-color="#3A86FF"/>
</linearGradient>
<linearGradient id="paint15_linear_7_32" x1="36.8471" y1="19.9027" x2="36.8471" y2="22.366" gradientUnits="userSpaceOnUse">
<stop stop-color="#FFBE0B"/>
<stop offset="0.239583" stop-color="#FB5607"/>
<stop offset="0.484375" stop-color="#FF006E"/>
<stop offset="0.739583" stop-color="#8338EC"/>
<stop offset="1" stop-color="#3A86FF"/>
</linearGradient>
<linearGradient id="paint16_linear_7_32" x1="11.6546" y1="24.008" x2="11.6546" y2="26.4713" gradientUnits="userSpaceOnUse">
<stop stop-color="#FFBE0B"/>
<stop offset="0.239583" stop-color="#FB5607"/>
<stop offset="0.484375" stop-color="#FF006E"/>
<stop offset="0.739583" stop-color="#8338EC"/>
<stop offset="1" stop-color="#3A86FF"/>
</linearGradient>
<linearGradient id="paint17_linear_7_32" x1="16.2731" y1="24.008" x2="16.2731" y2="26.4713" gradientUnits="userSpaceOnUse">
<stop stop-color="#FFBE0B"/>
<stop offset="0.239583" stop-color="#FB5607"/>
<stop offset="0.484375" stop-color="#FF006E"/>
<stop offset="0.739583" stop-color="#8338EC"/>
<stop offset="1" stop-color="#3A86FF"/>
</linearGradient>
<linearGradient id="paint18_linear_7_32" x1="20.8918" y1="24.008" x2="20.8918" y2="26.4713" gradientUnits="userSpaceOnUse">
<stop stop-color="#FFBE0B"/>
<stop offset="0.239583" stop-color="#FB5607"/>
<stop offset="0.484375" stop-color="#FF006E"/>
<stop offset="0.739583" stop-color="#8338EC"/>
<stop offset="1" stop-color="#3A86FF"/>
</linearGradient>
<linearGradient id="paint19_linear_7_32" x1="25.5104" y1="24.008" x2="25.5104" y2="26.4713" gradientUnits="userSpaceOnUse">
<stop stop-color="#FFBE0B"/>
<stop offset="0.239583" stop-color="#FB5607"/>
<stop offset="0.484375" stop-color="#FF006E"/>
<stop offset="0.739583" stop-color="#8338EC"/>
<stop offset="1" stop-color="#3A86FF"/>
</linearGradient>
<linearGradient id="paint20_linear_7_32" x1="30.1291" y1="24.008" x2="30.1291" y2="26.4713" gradientUnits="userSpaceOnUse">
<stop stop-color="#FFBE0B"/>
<stop offset="0.239583" stop-color="#FB5607"/>
<stop offset="0.484375" stop-color="#FF006E"/>
<stop offset="0.739583" stop-color="#8338EC"/>
<stop offset="1" stop-color="#3A86FF"/>
</linearGradient>
<linearGradient id="paint21_linear_7_32" x1="41.2138" y1="24.008" x2="41.2138" y2="26.4713" gradientUnits="userSpaceOnUse">
<stop stop-color="#FFBE0B"/>
<stop offset="0.239583" stop-color="#FB5607"/>
<stop offset="0.484375" stop-color="#FF006E"/>
<stop offset="0.739583" stop-color="#8338EC"/>
<stop offset="1" stop-color="#3A86FF"/>
</linearGradient>
<linearGradient id="paint22_linear_7_32" x1="36.8471" y1="24.008" x2="36.8471" y2="26.4713" gradientUnits="userSpaceOnUse">
<stop stop-color="#FFBE0B"/>
<stop offset="0.239583" stop-color="#FB5607"/>
<stop offset="0.484375" stop-color="#FF006E"/>
<stop offset="0.739583" stop-color="#8338EC"/>
<stop offset="1" stop-color="#3A86FF"/>
</linearGradient>
<linearGradient id="paint23_linear_7_32" x1="11.6546" y1="28.1135" x2="11.6546" y2="30.5768" gradientUnits="userSpaceOnUse">
<stop stop-color="#FFBE0B"/>
<stop offset="0.239583" stop-color="#FB5607"/>
<stop offset="0.484375" stop-color="#FF006E"/>
<stop offset="0.739583" stop-color="#8338EC"/>
<stop offset="1" stop-color="#3A86FF"/>
</linearGradient>
<linearGradient id="paint24_linear_7_32" x1="16.2731" y1="28.1135" x2="16.2731" y2="30.5768" gradientUnits="userSpaceOnUse">
<stop stop-color="#FFBE0B"/>
<stop offset="0.239583" stop-color="#FB5607"/>
<stop offset="0.484375" stop-color="#FF006E"/>
<stop offset="0.739583" stop-color="#8338EC"/>
<stop offset="1" stop-color="#3A86FF"/>
</linearGradient>
<linearGradient id="paint25_linear_7_32" x1="20.8918" y1="28.1135" x2="20.8918" y2="30.5768" gradientUnits="userSpaceOnUse">
<stop stop-color="#FFBE0B"/>
<stop offset="0.239583" stop-color="#FB5607"/>
<stop offset="0.484375" stop-color="#FF006E"/>
<stop offset="0.739583" stop-color="#8338EC"/>
<stop offset="1" stop-color="#3A86FF"/>
</linearGradient>
<linearGradient id="paint26_linear_7_32" x1="25.5104" y1="28.1135" x2="25.5104" y2="30.5768" gradientUnits="userSpaceOnUse">
<stop stop-color="#FFBE0B"/>
<stop offset="0.239583" stop-color="#FB5607"/>
<stop offset="0.484375" stop-color="#FF006E"/>
<stop offset="0.739583" stop-color="#8338EC"/>
<stop offset="1" stop-color="#3A86FF"/>
</linearGradient>
<linearGradient id="paint27_linear_7_32" x1="30.1291" y1="28.1135" x2="30.1291" y2="30.5768" gradientUnits="userSpaceOnUse">
<stop stop-color="#FFBE0B"/>
<stop offset="0.239583" stop-color="#FB5607"/>
<stop offset="0.484375" stop-color="#FF006E"/>
<stop offset="0.739583" stop-color="#8338EC"/>
<stop offset="1" stop-color="#3A86FF"/>
</linearGradient>
<linearGradient id="paint28_linear_7_32" x1="41.2138" y1="28.1135" x2="41.2138" y2="30.5768" gradientUnits="userSpaceOnUse">
<stop stop-color="#FFBE0B"/>
<stop offset="0.239583" stop-color="#FB5607"/>
<stop offset="0.484375" stop-color="#FF006E"/>
<stop offset="0.739583" stop-color="#8338EC"/>
<stop offset="1" stop-color="#3A86FF"/>
</linearGradient>
<linearGradient id="paint29_linear_7_32" x1="36.8471" y1="28.1135" x2="36.8471" y2="30.5768" gradientUnits="userSpaceOnUse">
<stop stop-color="#FFBE0B"/>
<stop offset="0.239583" stop-color="#FB5607"/>
<stop offset="0.484375" stop-color="#FF006E"/>
<stop offset="0.739583" stop-color="#8338EC"/>
<stop offset="1" stop-color="#3A86FF"/>
</linearGradient>
</defs>
</svg>
